<svg width="101" height="98" viewBox="0 0 101 98" fill="none" xmlns="http://www.w3.org/2000/svg">
<path d="M74.961 40.0982H52.859V37.6693C53.5225 37.3922 54.0869 36.9309 54.4813 36.3432C54.8758 35.7554 55.0827 35.0676 55.076 34.366V31.1599C55.1016 30.2496 54.7557 29.3664 54.1137 28.703C53.4717 28.0396 52.5857 27.6497 51.649 27.6185H48.36C47.4219 27.6492 46.5344 28.0396 45.8918 28.7044C45.2492 29.3691 44.9038 30.2541 44.931 31.1657V34.3718C44.9238 35.0733 45.1302 35.7612 45.5243 36.3489C45.9185 36.9367 46.4827 37.3981 47.146 37.6751V40.104H25.049C26.4305 36.1098 28.7665 32.4904 31.8656 29.5424C34.9646 26.5945 38.7385 24.402 42.878 23.1445C43.0403 23.0955 43.1852 23.0034 43.2963 22.8786C43.4075 22.7538 43.4805 22.6012 43.507 22.4382C43.5382 22.2732 43.523 22.1032 43.4632 21.9459C43.4034 21.7887 43.3011 21.6499 43.167 21.5443C41.6848 20.3985 40.4907 18.9397 39.6751 17.2788C38.8596 15.6178 38.444 13.7982 38.46 11.958C38.46 5.36398 43.638 0 50.004 0C56.37 0 61.549 5.36106 61.549 11.958C61.5651 13.799 61.1493 15.6195 60.3332 17.2812C59.5171 18.9429 58.3222 20.4021 56.839 21.5482C56.7055 21.6541 56.6038 21.793 56.5447 21.9503C56.4856 22.1076 56.4712 22.2775 56.503 22.4421C56.528 22.6049 56.5998 22.7576 56.7102 22.8826C56.8206 23.0075 56.9651 23.0997 57.127 23.1484C61.2669 24.4052 65.0416 26.5967 68.1421 29.5434C71.2426 32.4902 73.5807 36.1085 74.965 40.1021L74.961 40.0982ZM51.693 41.3058V36.6929C52.302 36.6634 52.875 36.4035 53.2893 35.9688C53.7037 35.5342 53.9264 34.9592 53.91 34.367V31.1608C53.927 30.5605 53.6987 29.9781 53.275 29.5408C52.8514 29.1035 52.2668 28.8469 51.649 28.8271H48.358C47.7391 28.8467 47.1533 29.1038 46.7292 29.5421C46.305 29.9805 46.0769 30.5643 46.095 31.1657V34.3718C46.0786 34.9641 46.3013 35.539 46.7157 35.9737C47.13 36.4084 47.703 36.6683 48.312 36.6977V41.3107H21.761V52.3156C22.3952 52.2026 23.0383 52.1435 23.683 52.1387C30.2 52.1387 35.502 57.628 35.502 64.3804C35.5288 67.6852 34.2041 70.8652 31.819 73.2216C33.8638 73.9489 35.7993 74.9386 37.574 76.1644C39.4039 75.0376 41.3839 74.1596 43.459 73.5548C42.044 72.4553 40.9039 71.0584 40.1245 69.4692C39.3451 67.88 38.9466 66.1398 38.959 64.3794C38.959 58.0701 43.9 52.9471 50.002 52.9471C56.104 52.9471 61.041 58.0682 61.041 64.3784C61.0536 66.1388 60.6551 67.8791 59.8757 69.4683C59.0963 71.0575 57.9561 72.4544 56.541 73.5538C58.6169 74.1586 60.5977 75.037 62.428 76.1644C64.2029 74.9389 66.1384 73.9492 68.183 73.2216C65.7974 70.8655 64.4726 67.6853 64.5 64.3804C64.5 57.6319 69.8 52.1387 76.32 52.1387C76.9654 52.1432 77.6092 52.2027 78.244 52.3165V41.3058H51.693ZM29.46 73.7005C29.4324 73.5543 29.4457 73.4035 29.4984 73.2639C29.5512 73.1242 29.6415 73.0009 29.76 72.9068C31.0794 71.888 32.1425 70.5905 32.8684 69.1127C33.5942 67.6349 33.9638 66.0158 33.949 64.3784C33.949 58.519 29.349 53.7505 23.685 53.7505C18.021 53.7505 13.419 58.518 13.419 64.3784C13.4034 66.0156 13.7723 67.6347 14.4977 69.1125C15.223 70.5904 16.2858 71.888 17.605 72.9068C17.7235 73.0009 17.8138 73.1242 17.8666 73.2639C17.9193 73.4035 17.9326 73.5543 17.905 73.7005C17.8817 73.8455 17.8172 73.9812 17.7188 74.0924C17.6204 74.2036 17.492 74.2859 17.348 74.3301C7.377 77.1943 0.341 86.5096 0 97.1511H25.565C25.6458 93.2527 26.638 89.4232 28.4666 85.9523C30.2952 82.4814 32.9124 79.46 36.12 77.1166C34.2402 75.8986 32.1844 74.9592 30.02 74.3291C29.8759 74.2854 29.7474 74.2034 29.6489 74.0923C29.5505 73.9812 29.4861 73.8454 29.463 73.7005H29.46ZM82.649 74.3321C82.5054 74.2878 82.3773 74.2054 82.2794 74.0941C82.1815 73.9829 82.1176 73.8472 82.095 73.7025C82.0668 73.5562 82.0798 73.4052 82.1327 73.2655C82.1855 73.1258 82.2761 73.0026 82.395 72.9087C83.7147 71.8902 84.7779 70.5926 85.5038 69.1148C86.2296 67.637 86.5991 66.0178 86.584 64.3804C86.584 58.5209 81.984 53.7525 76.32 53.7525C70.656 53.7525 66.056 58.518 66.056 64.3784C66.0401 66.0156 66.4087 67.6347 67.1339 69.1126C67.8591 70.5904 68.9218 71.8881 70.241 72.9068C70.3595 73.0009 70.4498 73.1242 70.5026 73.2639C70.5553 73.4035 70.5686 73.5543 70.541 73.7005C70.5178 73.8453 70.4534 73.981 70.3552 74.0922C70.257 74.2034 70.1288 74.2858 69.985 74.3301C67.8203 74.9594 65.7644 75.8989 63.885 77.1175C67.0929 79.4608 69.7102 82.4824 71.5386 85.9535C73.3671 89.4247 74.3589 93.2545 74.439 97.153H100.002C99.663 86.5096 92.623 77.1943 82.648 74.3301L82.649 74.3321Z" fill="white"/>
</svg>
